<?xml version="1.0" encoding="utf-8"?><svg xmlns="http://www.w3.org/2000/svg" xmlns:xlink="http://www.w3.org/1999/xlink" width="1561" height="615" preserveAspectRatio="xMidYMid" viewBox="0 0 1561 615" style="z-index:1;margin-right:-2px;display:block;background-color:rgb(241, 242, 243);animation-play-state:paused" ><g transform="translate(780.5,307.5) scale(1,1) translate(-780.5,-307.5)" style="transform:matrix(1, 0, 0, 1, 0, 0);animation-play-state:paused" ><defs style="animation-play-state:paused" ><linearGradient id="ldbk-photon-mv8u81i363-lg" x1="747.5" x2="1561" y1="0" y2="0" gradientUnits="userSpaceOnUse" style="animation-play-state:paused" ><stop stop-color="#6a0699" offset="0" style="animation-play-state:paused" ></stop>

    
<stop stop-color="#a976c3" offset="1" style="animation-play-state:paused" ></stop></linearGradient>

  
<mask id="ldbk-photon-mv8u81i363-mask" style="animation-play-state:paused" ><g style="animation-play-state:paused" ><path d="M1861 -0.5 L782.5494997475275 -0.5 A16.5 16.5 0 0 1 782.5494997475275 33.5 L1861 33.5" fill="#fff" transform="matrix(1,0,0,1,17.713891983032227,0)" style="transform:matrix(1, 0, 0, 1, 17.7139, 0);animation-play-state:paused" ></path>
<path d="M1625.4675452386973 -0.5 L1656.9350904773946 -0.5 A16.5 16.5 0 0 1 1656.9350904773946 33.5 L1625.4675452386973 33.5 A16.5 16.5 0 0 1 1625.4675452386973 -0.5" fill="#000" transform="matrix(1,0,0,1,0,0)" opacity="1" style="transform:matrix(1, 0, 0, 1, 0, 0);animation-play-state:paused" ></path>
<path d="M1861 32.5 L744.6937698031192 32.5 A16.5 16.5 0 0 0 744.6937698031192 66.5 L1861 66.5" fill="#fff" transform="matrix(1,0,0,1,-0.06929779052734375,0)" style="transform:matrix(1, 0, 0, 1, -0.0692978, 0);animation-play-state:paused" ></path>
<path d="M818.7419425250847 32.5 L855.4551726509047 32.5 A16.5 16.5 0 0 1 855.4551726509047 66.5 L818.7419425250847 66.5 A16.5 16.5 0 0 1 818.7419425250847 32.5" fill="#fff" transform="matrix(1,0,0,1,0,0)" opacity="0.977444" style="transform:matrix(1, 0, 0, 1, 0, 0);opacity:0.977444;animation-play-state:paused" ></path>
<path d="M1861 65.5 L767.6357359858686 65.5 A16.5 16.5 0 0 1 767.6357359858686 99.5 L1861 99.5" fill="#fff" transform="matrix(1,0,0,1,27.80160903930664,0)" style="transform:matrix(1, 0, 0, 1, 27.8016, 0);animation-play-state:paused" ></path>
<path d="M1606.8755353924423 65.5 L1619.7510707848846 65.5 A16.5 16.5 0 0 1 1619.7510707848846 99.5 L1606.8755353924423 99.5 A16.5 16.5 0 0 1 1606.8755353924423 65.5" fill="#000" transform="matrix(1,0,0,1,-931.41357421875,0)" opacity="0.526316" style="transform:matrix(1, 0, 0, 1, -931.414, 0);opacity:0.526316;animation-play-state:paused" ></path>
<path d="M1861 98.5 L720.3684603066869 98.5 A16.5 16.5 0 0 0 720.3684603066869 132.5 L1861 132.5" fill="#fff" transform="matrix(1,0,0,1,-0.9676399230957031,0)" style="transform:matrix(1, 0, 0, 1, -0.96764, 0);animation-play-state:paused" ></path>
<path d="M814.6071631556216 98.5 L852.2563859354387 98.5 A16.5 16.5 0 0 1 852.2563859354387 132.5 L814.6071631556216 132.5 A16.5 16.5 0 0 1 814.6071631556216 98.5" fill="#fff" transform="matrix(1,0,0,1,0,0)" opacity="0.827068" style="transform:matrix(1, 0, 0, 1, 0, 0);opacity:0.827068;animation-play-state:paused" ></path>
<path d="M1861 131.5 L730.9821149585861 131.5 A16.5 16.5 0 0 1 730.9821149585861 165.5 L1861 165.5" fill="#fff" transform="matrix(1,0,0,1,18.481456756591797,0)" style="transform:matrix(1, 0, 0, 1, 18.4815, 0);animation-play-state:paused" ></path>
<path d="M1610.4050482747357 131.5 L1626.8100965494714 131.5 A16.5 16.5 0 0 1 1626.8100965494714 165.5 L1610.4050482747357 165.5 A16.5 16.5 0 0 1 1610.4050482747357 131.5" fill="#000" transform="matrix(1,0,0,1,-322.55084228515625,0)" opacity="1" style="transform:matrix(1, 0, 0, 1, -322.551, 0);animation-play-state:paused" ></path>
<path d="M1861 164.5 L684.1262961433666 164.5 A16.5 16.5 0 0 0 684.1262961433666 198.5 L1861 198.5" fill="#fff" transform="matrix(1,0,0,1,-0.807450532913208,0)" style="transform:matrix(1, 0, 0, 1, -0.807451, 0);animation-play-state:paused" ></path>
<path d="M789.8844232173027 164.5 L819.2084905423964 164.5 A16.5 16.5 0 0 1 819.2084905423964 198.5 L789.8844232173027 198.5 A16.5 16.5 0 0 1 789.8844232173027 164.5" fill="#fff" transform="matrix(1,0,0,1,0,0)" opacity="0.601504" style="transform:matrix(1, 0, 0, 1, 0, 0);opacity:0.601504;animation-play-state:paused" ></path>
<path d="M1861 197.5 L722.3444170911137 197.5 A16.5 16.5 0 0 1 722.3444170911137 231.5 L1861 231.5" fill="#fff" transform="matrix(1,0,0,1,18.52547836303711,0)" style="transform:matrix(1, 0, 0, 1, 18.5255, 0);animation-play-state:paused" ></path>
<path d="M1614.022865593738 197.5 L1634.0457311874761 197.5 A16.5 16.5 0 0 1 1634.0457311874761 231.5 L1614.022865593738 231.5 A16.5 16.5 0 0 1 1614.022865593738 197.5" fill="#000" transform="matrix(1,0,0,1,-1221.1549072265625,0)" opacity="0.075188" style="transform:matrix(1, 0, 0, 1, -1221.15, 0);opacity:0.075188;animation-play-state:paused" ></path>
<path d="M1861 230.5 L696.6546799952428 230.5 A16.5 16.5 0 0 0 696.6546799952428 264.5 L1861 264.5" fill="#fff" transform="matrix(1,0,0,1,-5.159041404724121,0)" style="transform:matrix(1, 0, 0, 1, -5.15904, 0);animation-play-state:paused" ></path>
<path d="M828.0422111366852 230.5 L839.8684250736427 230.5 A16.5 16.5 0 0 1 839.8684250736427 264.5 L828.0422111366852 264.5 A16.5 16.5 0 0 1 828.0422111366852 230.5" fill="#fff" transform="matrix(1,0,0,1,0,0)" opacity="1" style="transform:matrix(1, 0, 0, 1, 0, 0);animation-play-state:paused" ></path>
<path d="M1861 263.5 L757.6343306173954 263.5 A16.5 16.5 0 0 1 757.6343306173954 297.5 L1861 297.5" fill="#fff" transform="matrix(1,0,0,1,0.08442870527505875,0)" style="transform:matrix(1, 0, 0, 1, 0.0844287, 0);animation-play-state:paused" ></path>
<path d="M1615.593344577257 263.5 L1637.1866891545142 263.5 A16.5 16.5 0 0 1 1637.1866891545142 297.5 L1615.593344577257 297.5 A16.5 16.5 0 0 1 1615.593344577257 263.5" fill="#000" transform="matrix(1,0,0,1,-1024.8536376953125,0)" opacity="0.676692" style="transform:matrix(1, 0, 0, 1, -1024.85, 0);opacity:0.676692;animation-play-state:paused" ></path>
<path d="M1861 296.5 L717.7841262874027 296.5 A16.5 16.5 0 0 0 717.7841262874027 330.5 L1861 330.5" fill="#fff" transform="matrix(1,0,0,1,-9.79162883758545,0)" style="transform:matrix(1, 0, 0, 1, -9.79163, 0);animation-play-state:paused" ></path>
<path d="M854.6543874297553 296.5 L869.6051362899532 296.5 A16.5 16.5 0 0 1 869.6051362899532 330.5 L854.6543874297553 330.5 A16.5 16.5 0 0 1 854.6543874297553 296.5" fill="#fff" transform="matrix(1,0,0,1,0,0)" opacity="1" style="transform:matrix(1, 0, 0, 1, 0, 0);animation-play-state:paused" ></path>
<path d="M1861 329.5 L789.5924095735094 329.5 A16.5 16.5 0 0 1 789.5924095735094 363.5 L1861 363.5" fill="#fff" transform="matrix(1,0,0,1,1.1513428688049316,0)" style="transform:matrix(1, 0, 0, 1, 1.15134, 0);animation-play-state:paused" ></path>
<path d="M1621.2882754468749 329.5 L1648.5765508937498 329.5 A16.5 16.5 0 0 1 1648.5765508937498 363.5 L1621.2882754468749 363.5 A16.5 16.5 0 0 1 1621.2882754468749 329.5" fill="#000" transform="matrix(1,0,0,1,-211.08071899414062,0)" opacity="1" style="transform:matrix(1, 0, 0, 1, -211.081, 0);animation-play-state:paused" ></path>
<path d="M1861 362.5 L743.059634274597 362.5 A16.5 16.5 0 0 0 743.059634274597 396.5 L1861 396.5" fill="#fff" transform="matrix(1,0,0,1,-0.09449195861816406,0)" style="transform:matrix(1, 0, 0, 1, -0.094492, 0);animation-play-state:paused" ></path>
<path d="M846.8524633785131 362.5 L874.9509289503312 362.5 A16.5 16.5 0 0 1 874.9509289503312 396.5 L846.8524633785131 396.5 A16.5 16.5 0 0 1 846.8524633785131 362.5" fill="#fff" transform="matrix(1,0,0,1,0,0)" opacity="0.37594" style="transform:matrix(1, 0, 0, 1, 0, 0);opacity:0.37594;animation-play-state:paused" ></path>
<path d="M1861 395.5 L796.537917832996 395.5 A16.5 16.5 0 0 1 796.537917832996 429.5 L1861 429.5" fill="#fff" transform="matrix(1,0,0,1,14.102829933166504,0)" style="transform:matrix(1, 0, 0, 1, 14.1028, 0);animation-play-state:paused" ></path>
<path d="M1617.7520193939022 395.5 L1641.5040387878043 395.5 A16.5 16.5 0 0 1 1641.5040387878043 429.5 L1617.7520193939022 429.5 A16.5 16.5 0 0 1 1617.7520193939022 395.5" fill="#000" transform="matrix(1,0,0,1,-1219.72998046875,0)" opacity="0.150376" style="transform:matrix(1, 0, 0, 1, -1219.73, 0);opacity:0.150376;animation-play-state:paused" ></path>
<path d="M1861 428.5 L746.705506005709 428.5 A16.5 16.5 0 0 0 746.705506005709 462.5 L1861 462.5" fill="#fff" transform="matrix(1,0,0,1,-18.357128143310547,0)" style="transform:matrix(1, 0, 0, 1, -18.3571, 0);animation-play-state:paused" ></path>
<path d="M848.4765352643627 428.5 L869.519801272133 428.5 A16.5 16.5 0 0 1 869.519801272133 462.5 L848.4765352643627 462.5 A16.5 16.5 0 0 1 848.4765352643627 428.5" fill="#fff" transform="matrix(1,0,0,1,0,0)" opacity="1" style="transform:matrix(1, 0, 0, 1, 0, 0);animation-play-state:paused" ></path>
<path d="M1861 461.5 L796.3220537313351 461.5 A16.5 16.5 0 0 1 796.3220537313351 495.5 L1861 495.5" fill="#fff" transform="matrix(1,0,0,1,11.287294387817383,0)" style="transform:matrix(1, 0, 0, 1, 11.2873, 0);animation-play-state:paused" ></path>
<path d="M1626.616716089481 461.5 L1659.2334321789622 461.5 A16.5 16.5 0 0 1 1659.2334321789622 495.5 L1626.616716089481 495.5 A16.5 16.5 0 0 1 1626.616716089481 461.5" fill="#000" transform="matrix(1,0,0,1,-799.8790283203125,0)" opacity="0.526316" style="transform:matrix(1, 0, 0, 1, -799.879, 0);opacity:0.526316;animation-play-state:paused" ></path>
<path d="M1861 494.5 L780.2277603095321 494.5 A16.5 16.5 0 0 0 780.2277603095321 528.5 L1861 528.5" fill="#fff" transform="matrix(1,0,0,1,-6.959502696990967,0)" style="transform:matrix(1, 0, 0, 1, -6.9595, 0);animation-play-state:paused" ></path>
<path d="M864.2635183726103 494.5 L886.82048833456 494.5 A16.5 16.5 0 0 1 886.82048833456 528.5 L864.2635183726103 528.5 A16.5 16.5 0 0 1 864.2635183726103 494.5" fill="#fff" transform="matrix(1,0,0,1,0,0)" opacity="1" style="transform:matrix(1, 0, 0, 1, 0, 0);animation-play-state:paused" ></path>
<path d="M1861 527.5 L810.0267663505523 527.5 A16.5 16.5 0 0 1 810.0267663505523 561.5 L1861 561.5" fill="#fff" transform="matrix(1,0,0,1,26.388507843017578,0)" style="transform:matrix(1, 0, 0, 1, 26.3885, 0);animation-play-state:paused" ></path>
<path d="M1629.0898648347309 527.5 L1664.1797296694617 527.5 A16.5 16.5 0 0 1 1664.1797296694617 561.5 L1629.0898648347309 561.5 A16.5 16.5 0 0 1 1629.0898648347309 527.5" fill="#000" transform="matrix(1,0,0,1,-1003.849365234375,0)" opacity="0.601503" style="transform:matrix(1, 0, 0, 1, -1003.85, 0);opacity:0.601503;animation-play-state:paused" ></path>
<path d="M1861 560.5 L774.0406310390956 560.5 A16.5 16.5 0 0 0 774.0406310390956 594.5 L1861 594.5" fill="#fff" transform="matrix(1,0,0,1,-5.057584285736084,0)" style="transform:matrix(1, 0, 0, 1, -5.05758, 0);animation-play-state:paused" ></path>
<path d="M855.6811767995318 560.5 L894.5303896927242 560.5 A16.5 16.5 0 0 1 894.5303896927242 594.5 L855.6811767995318 594.5 A16.5 16.5 0 0 1 855.6811767995318 560.5" fill="#fff" transform="matrix(1,0,0,1,0,0)" opacity="1" style="transform:matrix(1, 0, 0, 1, 0, 0);animation-play-state:paused" ></path>
<path d="M1861 593.5 L802.5211075027753 593.5 A16.5 16.5 0 0 1 802.5211075027753 627.5 L1861 627.5" fill="#fff" transform="matrix(1,0,0,1,20.91463851928711,0)" style="transform:matrix(1, 0, 0, 1, 20.9146, 0);animation-play-state:paused" ></path>
<path d="M1630.501137139843 593.5 L1667.002274279686 593.5 A16.5 16.5 0 0 1 1667.002274279686 627.5 L1630.501137139843 627.5 A16.5 16.5 0 0 1 1630.501137139843 593.5" fill="#000" transform="matrix(1,0,0,1,-1126.8443603515625,0)" opacity="0.451128" style="transform:matrix(1, 0, 0, 1, -1126.84, 0);opacity:0.451128;animation-play-state:paused" ></path></g></mask></defs>


<rect x="0" y="0" width="1561" height="615" fill="url(#ldbk-photon-mv8u81i363-lg)" mask="url(#ldbk-photon-mv8u81i363-mask)" style="animation-play-state:paused" ></rect></g></svg>